<?xml version="1.0" encoding="utf-8"?>
<!-- Generator: Adobe Illustrator 25.2.3, SVG Export Plug-In . SVG Version: 6.00 Build 0)  -->
<svg version="1.1" id="Capa_1" xmlns="http://www.w3.org/2000/svg" xmlns:xlink="http://www.w3.org/1999/xlink" x="0px" y="0px"
	 viewBox="0 0 480 480" style="enable-background:new 0 0 480 480;" xml:space="preserve">
<style type="text/css">
	.st0{fill:#777777;}
</style>
<g>
	<g>
		<path class="st0" d="M472,0H8C3.6,0,0,3.6,0,8v32c0,4.4,3.6,8,8,8h8v344c0,4.4,3.6,8,8,8h8v72c0,4.4,3.6,8,8,8h32
			c3.8,0,7.1-2.7,7.8-6.4L94.6,400h290.9l14.7,73.6c0.8,3.7,4,6.4,7.8,6.4h32c4.4,0,8-3.6,8-8v-72h8c4.4,0,8-3.6,8-8V48h8
			c4.4,0,8-3.6,8-8V8C480,3.6,476.4,0,472,0z M65.4,464H48v-64h30.2L65.4,464z M432,464h-17.4l-12.8-64H432V464z M448,384H32V48h416
			V384z M464,32H16V16h448V32z"/>
	</g>
</g>
<g>
	<g>
		<path class="st0" d="M416,64H64c-4.4,0-8,3.6-8,8v128c0,4.4,3.6,8,8,8h352c4.4,0,8-3.6,8-8V72C424,67.6,420.4,64,416,64z M408,192
			H72V80h336V192z"/>
	</g>
</g>
<g>
	<g>
		<path class="st0" d="M416,224H64c-4.4,0-8,3.6-8,8v128c0,4.4,3.6,8,8,8h352c4.4,0,8-3.6,8-8V232C424,227.6,420.4,224,416,224z
			 M408,352H72V240h336V352z"/>
	</g>
</g>
<g>
	<g>
		<path class="st0" d="M240,96c-13.3,0-24,10.7-24,24s10.7,24,24,24s24-10.7,24-24S253.3,96,240,96z M240,128c-4.4,0-8-3.6-8-8
			s3.6-8,8-8s8,3.6,8,8S244.4,128,240,128z"/>
	</g>
</g>
<g>
	<g>
		<path class="st0" d="M240,256c-13.3,0-24,10.7-24,24s10.7,24,24,24s24-10.7,24-24S253.3,256,240,256z M240,288c-4.4,0-8-3.6-8-8
			s3.6-8,8-8s8,3.6,8,8S244.4,288,240,288z"/>
	</g>
</g>
</svg>
