<?xml version="1.0" encoding="utf-8"?>
<!-- Generator: Adobe Illustrator 25.2.3, SVG Export Plug-In . SVG Version: 6.00 Build 0)  -->
<svg version="1.1" id="Layer_3" xmlns="http://www.w3.org/2000/svg" xmlns:xlink="http://www.w3.org/1999/xlink" x="0px" y="0px"
	 viewBox="0 0 512 512" style="enable-background:new 0 0 512 512;" xml:space="preserve">
<style type="text/css">
	.st0{fill:#777777;}
</style>
<g>
	<path class="st0" d="M496,216h-80v-24c0-4.4-3.6-8-8-8c-12.2,0-23.1,5.6-30.4,14.3c-2-1.2-4-2.2-6.2-3l-16.4-5.5
		c-6.5-2.2-10.9-8.3-10.9-15.2V168h88c8.8,0,16-7.2,16-16V24c0-8.8-7.2-16-16-16H208c-8.8,0-16,7.2-16,16v128c0,8.8,7.2,16,16,16h88
		v6.7c0,6.9-4.4,13-10.9,15.2l-16.4,5.5c-9.7,3.2-16.9,11.1-19.5,20.6H152V80c0-4.4-3.6-8-8-8H48c-4.4,0-8,3.6-8,8v136H16
		c-4.4,0-8,3.6-8,8v48v224c0,4.4,3.6,8,8,8h32c4.4,0,8-3.6,8-8v-56h80v56c0,4.4,3.6,8,8,8h32c4.4,0,8-3.6,8-8V280h184v56H264
		c-22.1,0-40,17.9-40,40v16c0,4.4,3.6,8,8,8h64v6.1c0,18.7-7,36.3-19.5,49.9H264c-13.2,0-24,10.8-24,24s10.8,24,24,24h112
		c13.2,0,24-10.8,24-24s-10.8-24-24-24h-12.5C351,442.3,344,424.8,344,406.1V400h48c13.2,0,24-10.8,24-24v-32v-64h40v216
		c0,4.4,3.6,8,8,8h32c4.4,0,8-3.6,8-8V272v-48C504,219.6,500.4,216,496,216z M432,24l0,96H208V24H432z M208,136h224v16H208L208,136z
		 M273.7,210.5l16.4-5.5c13.1-4.4,21.9-16.6,21.9-30.4V168h16v6.7c0,13.8,8.8,26,21.9,30.4l16.4,5.5c1.3,0.4,2.5,1.1,3.6,1.8
		c-0.4,1.2-0.9,2.4-1.1,3.6H266.5C268.2,213.5,270.7,211.5,273.7,210.5L273.7,210.5z M136,168H56v-32h80V168z M136,88v32H56V88H136z
		 M56,184h80v32H56V184z M40,488H24V280h16V488z M136,280v64H56v-64H136z M56,424v-64h80v64H56z M168,488h-16V280h16V488z M176,264
		h-32H48H24v-32h344v32H176z M384,224c0-10.4,6.7-19.3,16-22.6V336h-16V224z M384,480c0,4.4-3.6,8-8,8H264c-4.4,0-8-3.6-8-8
		s3.6-8,8-8h112C380.4,472,384,475.6,384,480z M343.1,456h-46.2c9.8-14.7,15.1-31.9,15.1-49.9V400h16v6.1
		C328,424.1,333.3,441.3,343.1,456z M400,376c0,4.4-3.6,8-8,8H240v-8c0-13.2,10.8-24,24-24h136V376z M416,232h72v32h-24h-48V232z
		 M488,488h-16V280h16V488z"/>
	<path class="st0" d="M80,296h32v16H80V296z"/>
	<path class="st0" d="M80,376h32v16H80V376z"/>
</g>
</svg>
