<?xml version="1.0" encoding="utf-8"?>
<!-- Generator: Adobe Illustrator 25.2.3, SVG Export Plug-In . SVG Version: 6.00 Build 0)  -->
<svg version="1.1" id="레이어_1" xmlns="http://www.w3.org/2000/svg" xmlns:xlink="http://www.w3.org/1999/xlink" x="0px"
	 y="0px" viewBox="0 0 512 512" style="enable-background:new 0 0 512 512;" xml:space="preserve">
<style type="text/css">
	.st0{fill:#777777;}
</style>
<path class="st0" d="M496,344h-8v-64c0-17.7-14.3-32-32-32V112c0-17.7-14.3-32-32-32H88c-17.7,0-32,14.3-32,32v136
	c-17.7,0-32,14.3-32,32v64h-8c-4.4,0-8,3.6-8,8v32c0,4.4,3.6,8,8,8h8v32c0,4.4,3.6,8,8,8h24c3.8,0,7.1-2.7,7.8-6.4l6.7-33.6h370.9
	l6.7,33.6c0.7,3.7,4,6.4,7.8,6.4h24c4.4,0,8-3.6,8-8v-32h8c4.4,0,8-3.6,8-8v-32C504,347.6,500.4,344,496,344z M72,112
	c0-8.8,7.2-16,16-16h336c8.8,0,16,7.2,16,16v136h-16v-32c0-17.7-14.3-32-32-32h-96c-17.7,0-32,14.3-32,32v32h-16v-32
	c0-17.7-14.3-32-32-32h-96c-17.7,0-32,14.3-32,32v32H72V112z M408,216v32H280v-32c0-8.8,7.2-16,16-16h96
	C400.8,200,408,207.2,408,216z M232,216v32H104v-32c0-8.8,7.2-16,16-16h96C224.8,200,232,207.2,232,216z M40,280c0-8.8,7.2-16,16-16
	h400c8.8,0,16,7.2,16,16v64H40V280z M49.4,416H40v-24h14.2L49.4,416z M472,416h-9.4l-4.8-24H472V416z M488,376H24v-16h464V376z"/>
</svg>
