<?xml version="1.0" encoding="utf-8"?>
<!-- Generator: Adobe Illustrator 25.2.3, SVG Export Plug-In . SVG Version: 6.00 Build 0)  -->
<svg version="1.1" id="레이어_1" xmlns="http://www.w3.org/2000/svg" xmlns:xlink="http://www.w3.org/1999/xlink" x="0px"
	 y="0px" viewBox="0 0 512 512" style="enable-background:new 0 0 512 512;" xml:space="preserve">
<style type="text/css">
	.st0{fill:#777777;}
</style>
<g id="outline">
	<path class="st0" d="M392,280c4.4,0,8-3.6,8-8v-16c0-4.4-3.6-8-8-8s-8,3.6-8,8v16C384,276.4,387.6,280,392,280z"/>
	<path class="st0" d="M392,328c-4.4,0-8,3.6-8,8v16c0,4.4,3.6,8,8,8s8-3.6,8-8v-16C400,331.6,396.4,328,392,328z"/>
	<path class="st0" d="M365.7,469.7c3.2,1.5,6.8,2.3,10.3,2.3h96c13.2,0,24-10.8,24-24V240c0-13.2-10.8-24-24-24h-96
		c-13.2,0-24,10.8-24,24v40h-16v-16c0-4.4-3.6-8-8-8h-48c-4.4,0-8,3.6-8,8v16h-16v-16c0-2.1-0.8-4.2-2.4-5.7
		c1.5-3.2,2.4-6.8,2.4-10.3h16c4.4,0,8-3.6,8-8s-3.6-8-8-8h-16c0-4.4-3.6-8-8-8h-48c-4.4,0-8,3.6-8,8v16c0,3.6,0.8,7.1,2.4,10.4
		c-1.5,1.5-2.4,3.5-2.4,5.7v16h-40v-16h8c4.4,0,8-3.6,8-8s-3.6-8-8-8h-8v-8c0-13.3-10.7-24-24-24s-24,10.7-24,24v16c0,4.4,3.6,8,8,8
		s8-3.6,8-8v-16c0-4.4,3.6-8,8-8c4.4,0,8,3.6,8,8v40H72v-16c0-13.3-10.7-24-24-24s-24,10.7-24,24v16c-4.4,0-8,3.6-8,8v176
		c0,4.4,3.6,8,8,8h336C362.1,472,364.2,471.2,365.7,469.7z M472,456h-96c-4.4,0-8-3.6-8-8V312h112v136C480,452.4,476.4,456,472,456z
		 M368,240c0-4.4,3.6-8,8-8h96c4.4,0,8,3.6,8,8v56H368V240z M320,296v32H208v-32H320z M208,344h112v80H208V344z M288,272h32v8h-32
		V272z M208,280v-8h32v8H208z M208,240h32v8c0,4.4-3.6,8-8,8h-16c-4.4,0-8-3.6-8-8V240z M40,264c0-4.4,3.6-8,8-8s8,3.6,8,8v16H40
		V264z M352,456H32V296h160v136c0,4.4,3.6,8,8,8h128c4.4,0,8-3.6,8-8V296h16V456z"/>
	<path class="st0" d="M280,360h-32c-4.4,0-8,3.6-8,8s3.6,8,8,8h32c4.4,0,8-3.6,8-8S284.4,360,280,360z"/>
	<path class="st0" d="M168,376H56c-4.4,0-8,3.6-8,8v48c0,4.4,3.6,8,8,8h112c4.4,0,8-3.6,8-8v-48C176,379.6,172.4,376,168,376z
		 M160,424H64v-32h96V424z"/>
	<path class="st0" d="M168,312H56c-4.4,0-8,3.6-8,8v32c0,4.4,3.6,8,8,8h112c4.4,0,8-3.6,8-8v-32C176,315.6,172.4,312,168,312z
		 M160,344H64v-16h96V344z"/>
	<path class="st0" d="M320,104c4.4,0,8-3.6,8-8V80c0-4.4-3.6-8-8-8s-8,3.6-8,8v16C312,100.4,315.6,104,320,104z"/>
	<path class="st0" d="M416,104c4.4,0,8-3.6,8-8V80c0-4.4-3.6-8-8-8s-8,3.6-8,8v16C408,100.4,411.6,104,416,104z"/>
	<path class="st0" d="M24,88h72v32h-8c-3,0-5.8,1.7-7.2,4.4l-24,48c-2,4-0.4,8.8,3.6,10.7c1.1,0.6,2.3,0.8,3.6,0.8h80
		c4.4,0,8-3.6,8-8c0-1.2-0.3-2.5-0.8-3.6l-24-48c-1.4-2.7-4.1-4.4-7.2-4.4h-8V88h104v32h-8c-3,0-5.8,1.7-7.2,4.4l-24,48
		c-2,4-0.4,8.8,3.6,10.7c1.1,0.6,2.3,0.8,3.6,0.8h80c4.4,0,8-3.6,8-8c0-1.2-0.3-2.5-0.8-3.6l-24-48c-1.4-2.7-4.1-4.4-7.2-4.4h-8V88
		h56v64c0,4.4,3.6,8,8,8h192c4.4,0,8-3.6,8-8V48c0-4.4-3.6-8-8-8H24c-4.4,0-8,3.6-8,8v32C16,84.4,19.6,88,24,88z M131.1,168H76.9
		l16-32h22.1L131.1,168z M251.1,168h-54.1l16-32h22.1L251.1,168z M304,56h72v64h-72V56z M480,144H304v-8h176V144z M480,120h-88V56
		h88V120z M32,56h256v16H32V56z"/>
	<circle class="st0" cx="232" cy="312" r="8"/>
	<circle class="st0" cx="264" cy="312" r="8"/>
	<circle class="st0" cx="296" cy="312" r="8"/>
</g>
</svg>
