<?xml version="1.0" encoding="utf-8"?>
<!-- Generator: Adobe Illustrator 25.2.3, SVG Export Plug-In . SVG Version: 6.00 Build 0)  -->
<svg version="1.1" id="Outline" xmlns="http://www.w3.org/2000/svg" xmlns:xlink="http://www.w3.org/1999/xlink" x="0px" y="0px"
	 viewBox="0 0 512 512" style="enable-background:new 0 0 512 512;" xml:space="preserve">
<style type="text/css">
	.st0{fill:#777777;}
</style>
<path class="st0" d="M486.6,142.6c12.5-12.5,12.5-32.7,0-45.2c-4-4.1-9.1-6.9-14.7-8.4V48c0-13.2-10.8-24-24-24h-16
	c-13.2,0-24,10.8-24,24v44.2l-31,24.8c-5.7,4.5-9,11.4-9,18.7v24.9c-35-39.8-95.6-43.7-135.4-8.7c-10.7,9.4-19.2,21.1-24.8,34.2
	c-9.1-10.2-19.6-19-31.2-26.3c7.7-15.8,9.5-33.8,4.8-50.8c16-7.4,23-26.4,15.6-42.4c-7.4-16-26.4-23-42.4-15.6
	c-5.4,2.5-10,6.4-13.3,11.4c-18.7-8.4-40.1-8.4-58.8,0C72.9,47.6,53,43.6,38.3,53.4S19.6,83,29.4,97.7c3.3,4.9,7.8,8.8,13.2,11.3
	c-5.9,21.4-1.5,44.3,11.7,62.1c-18.6,27.4-43.5,71.3-36.4,100.6c2.3,10.2,9.1,18.8,18.4,23.4c5,2.7,10.6,4.1,16.2,4.2
	c4.5,0,8.9-0.9,13-2.7c12.8-5.5,22.9-18.7,30.4-32.2V480c0,4.4,3.6,8,8,8h368c4.4,0,8-3.6,8-8V224c0-4.4-3.6-8-8-8v-65
	C477.5,149.6,482.6,146.7,486.6,142.6z M475.3,131.3c-6.2,6.2-16.4,6.2-22.6,0c-6.2-6.2-6.2-16.4,0-22.6c6.2-6.2,16.4-6.2,22.6,0
	c6.3,6.2,6.4,16.3,0.2,22.6C475.5,131.3,475.4,131.4,475.3,131.3L475.3,131.3z M464,232v48H112v-48H464z M112,360h352v48H112V360z
	 M112,344v-48h112v8c0,13.2,10.8,24,24,24h80c13.2,0,24-10.8,24-24v-8h112v48H112z M240,296h96v8c0,4.4-3.6,8-8,8h-80
	c-4.4,0-8-3.6-8-8V296z M276.7,216h-60.3c1.6-15.6,7.7-30.5,17.7-42.6L276.7,216z M357.9,173.4c10,12.1,16.1,27,17.7,42.6h-60.3
	L357.9,173.4z M391.7,216c-0.7-8.2-2.4-16.3-5.2-24H408v24H391.7z M387,129.4l21-16.8V176h-24v-40.3C384,133.3,385.1,131,387,129.4z
	 M346.6,162.1L296,212.7l-50.6-50.6C274.8,138,317.2,138,346.6,162.1L346.6,162.1z M168,64c8.8,0,16,7.2,16,16
	c0,5.9-3.3,11.3-8.5,14.1c-5-9.3-11.9-17.4-20.3-23.7C158.2,66.4,163,64,168,64z M168,128c0,12.9-4.4,25.5-12.6,35.5
	c-11.3-23.9-39.9-34.2-63.9-22.9c-10,4.7-18.1,12.8-22.9,22.9c-19.6-23.9-16-59.2,7.9-78.8s59.2-16,78.8,7.9
	C163.5,102.6,168,115.1,168,128z M104.1,153c0.6,4.4,4.6,7.5,8.9,6.9c3.6-0.5,6.5-3.3,6.9-6.9c10.9,2.8,19.5,11.1,22.7,21.9
	C124,187,100,187,81.3,174.9C84.6,164.1,93.2,155.8,104.1,153z M40,80c0-8.8,7.2-16,16-16c5,0,9.8,2.4,12.8,6.4
	c-8.4,6.3-15.4,14.4-20.3,23.7C43.3,91.3,40,85.9,40,80z M59.2,281.8c-5.1,2.2-10,1.9-15.5-0.9c-5.2-2.5-9-7.3-10.2-12.9
	c-4.1-17.1,7.8-48.4,32.1-84.9c0.6,0.5,1.3,1,1.9,1.6c26.1,20.6,63,20.6,89.1,0c4.2-3.3,8.1-7.1,11.4-11.3
	c13.1,8.2,24.6,18.7,34.1,30.9c-0.8,3.9-1.4,7.9-1.7,11.8H104c-3.6,0-6.7,2.4-7.7,5.8h0C92.3,235.8,77.9,273.8,59.2,281.8z M112,472
	v-48h352v48H112z M424,216V48c0-4.4,3.6-8,8-8h16c4.4,0,8,3.6,8,8v41c-17.1,4.4-27.4,21.8-23,38.9c2.9,11.3,11.7,20.1,23,23v65H424z
	"/>
<circle class="st0" cx="88" cy="120" r="8"/>
<circle class="st0" cx="136" cy="120" r="8"/>
</svg>
