<?xml version="1.0" encoding="utf-8"?>
<!-- Generator: Adobe Illustrator 25.2.3, SVG Export Plug-In . SVG Version: 6.00 Build 0)  -->
<svg version="1.1" id="Capa_1" xmlns="http://www.w3.org/2000/svg" xmlns:xlink="http://www.w3.org/1999/xlink" x="0px" y="0px"
	 viewBox="0 0 512 512" style="enable-background:new 0 0 512 512;" xml:space="preserve">
<style type="text/css">
	.st0{fill:#777777;}
</style>
<g>
	<g>
		<path class="st0" d="M238.9,34.1c-4.7,0-8.5,3.8-8.5,8.5v34.1c0,4.7,3.8,8.5,8.5,8.5s8.5-3.8,8.5-8.5V42.7
			C247.5,38,243.6,34.1,238.9,34.1z"/>
	</g>
</g>
<g>
	<g>
		<path class="st0" d="M477.9,34.1c-4.7,0-8.5,3.8-8.5,8.5v34.1c0,4.7,3.8,8.5,8.5,8.5s8.5-3.8,8.5-8.5V42.7
			C486.4,38,482.6,34.1,477.9,34.1z"/>
	</g>
</g>
<g>
	<g>
		<path class="st0" d="M179.2,0H8.5C3.8,0,0,3.8,0,8.5v494.9c0,4.7,3.8,8.5,8.5,8.5h170.7c4.7,0,8.5-3.8,8.5-8.5V8.5
			C187.7,3.8,183.9,0,179.2,0z M170.7,494.9H17.1V17.1h153.6V494.9z"/>
	</g>
</g>
<g>
	<g>
		<path class="st0" d="M503.5,358.4H179.2c-4.7,0-8.5,3.8-8.5,8.5v136.5c0,4.7,3.8,8.5,8.5,8.5h324.3c4.7,0,8.5-3.8,8.5-8.5V366.9
			C512,362.2,508.2,358.4,503.5,358.4z M494.9,494.9H187.7V375.5h307.2V494.9z"/>
	</g>
</g>
<g>
	<g>
		<path class="st0" d="M503.5,0H179.2c-4.7,0-8.5,3.8-8.5,8.5v34.1c0,4.7,3.8,8.5,8.5,8.5h324.3c4.7,0,8.5-3.8,8.5-8.5V8.5
			C512,3.8,508.2,0,503.5,0z M494.9,34.1H187.7V17.1h307.2V34.1z"/>
	</g>
</g>
<g>
	<g>
		<path class="st0" d="M136.5,247.5h-25.6c-4.7,0-8.5,3.8-8.5,8.5c0,4.7,3.8,8.5,8.5,8.5h25.6c4.7,0,8.5-3.8,8.5-8.5
			S141.2,247.5,136.5,247.5z"/>
	</g>
</g>
<g>
	<g>
		<path class="st0" d="M110.9,247.5c-4.7,0-8.5,3.8-8.5,8.5v25.6c0,4.7,3.8,8.5,8.5,8.5s8.5-3.8,8.5-8.5V256
			C119.5,251.3,115.6,247.5,110.9,247.5z"/>
	</g>
</g>
<g>
	<g>
		<path class="st0" d="M366.9,418.1h-51.2c-4.7,0-8.5,3.8-8.5,8.5s3.8,8.5,8.5,8.5h51.2c4.7,0,8.5-3.8,8.5-8.5
			S371.6,418.1,366.9,418.1z"/>
	</g>
</g>
<g>
	<g>
		<path class="st0" d="M341.3,418.1c-4.7,0-8.5,3.8-8.5,8.5v17.1c0,4.7,3.8,8.5,8.5,8.5s8.5-3.8,8.5-8.5v-17.1
			C349.9,422,346,418.1,341.3,418.1z"/>
	</g>
</g>
<g>
	<g>
		<path class="st0" d="M290.1,34.1c-4.7,0-8.5,3.8-8.5,8.5v51.2c0,4.7,3.8,8.5,8.5,8.5s8.5-3.8,8.5-8.5V42.7
			C298.7,38,294.8,34.1,290.1,34.1z"/>
	</g>
</g>
<g>
	<g>
		<path class="st0" d="M290.1,119.5c-45.9,0-76.8,17.1-76.8,42.7v17.1c0,4.7,3.8,8.5,8.5,8.5h17.1v76.8c0,4.7,3.8,8.5,8.5,8.5h85.3
			c4.7,0,8.5-3.8,8.5-8.5v-76.8h17.1c4.7,0,8.5-3.8,8.5-8.5v-17.1C366.9,136.6,336.1,119.5,290.1,119.5z M349.9,170.7h-17.1
			c-4.7,0-8.5,3.8-8.5,8.5V256H256v-76.8c0-4.7-3.8-8.5-8.5-8.5h-17.1v-8.5c0-12.4,20.9-25.6,59.7-25.6s59.7,13.2,59.7,25.6
			L349.9,170.7L349.9,170.7z"/>
	</g>
</g>
<g>
	<g>
		<path class="st0" d="M349.9,119.5c-11.4,0-22,1.1-31.7,3.2c-3.9,0.9-6.7,4.3-6.7,8.3s2.8,7.5,6.7,8.3
			c19.3,4.2,31.7,13.2,31.7,22.8v8.5h-17.1c-4.7,0-8.5,3.8-8.5,8.5v85.3c0,4.7,3.8,8.5,8.5,8.5h59.7c4.7,0,8.5-3.8,8.5-8.5v-76.8
			h17.1c4.7,0,8.5-3.8,8.5-8.5v-17.1C426.7,136.6,395.8,119.5,349.9,119.5z M409.6,170.7h-17.1c-4.7,0-8.5,3.8-8.5,8.5V256h-42.7
			v-68.3h17.1c4.7,0,8.5-3.8,8.5-8.5v-17.1c0-9.8-4.7-18.6-13.4-25.6c36.4,0.8,56,13.5,56,25.6L409.6,170.7L409.6,170.7z"/>
	</g>
</g>
<g>
	<g>
		<path class="st0" d="M409.6,119.5c-11.4,0-22,1.1-31.7,3.2c-3.9,0.9-6.7,4.3-6.7,8.3s2.8,7.5,6.7,8.3
			c19.3,4.2,31.7,13.2,31.7,22.8v8.5h-17.1c-4.7,0-8.5,3.8-8.5,8.5v85.3c0,4.7,3.8,8.5,8.5,8.5h59.7c4.7,0,8.5-3.8,8.5-8.5v-76.8
			h17.1c4.7,0,8.5-3.8,8.5-8.5v-17.1C486.4,136.6,455.5,119.5,409.6,119.5z M469.3,170.7h-17.1c-4.7,0-8.5,3.8-8.5,8.5V256h-42.7
			v-68.3h17.1c4.7,0,8.5-3.8,8.5-8.5v-17.1c0-9.8-4.7-18.6-13.4-25.6c36.4,0.8,56,13.5,56,25.6V170.7z"/>
	</g>
</g>
<g>
	<g>
		<path class="st0" d="M290.1,85.3c-4.7,0-8.5,3.8-8.5,8.5s3.8,8.5,8.5,8.5c4.7,0,8.5,3.8,8.5,8.5c0,4.7-3.8,8.5-8.5,8.5
			c-4.7,0-8.5,3.8-8.5,8.5c0,4.7,3.8,8.5,8.5,8.5c14.1,0,25.6-11.5,25.6-25.6S304.2,85.3,290.1,85.3z"/>
	</g>
</g>
<g>
	<g>
		<path class="st0" d="M358.4,34.1c-4.7,0-8.5,3.8-8.5,8.5v51.2c0,4.7,3.8,8.5,8.5,8.5s8.5-3.8,8.5-8.5V42.7
			C366.9,38,363.1,34.1,358.4,34.1z"/>
	</g>
</g>
<g>
	<g>
		<path class="st0" d="M358.4,85.3c-4.7,0-8.5,3.8-8.5,8.5s3.8,8.5,8.5,8.5c4.7,0,8.5,3.8,8.5,8.5c0,4.7-3.8,8.5-8.5,8.5
			c-4.7,0-8.5,3.8-8.5,8.5c0,4.7,3.8,8.5,8.5,8.5c14.1,0,25.6-11.5,25.6-25.6S372.5,85.3,358.4,85.3z"/>
	</g>
</g>
<g>
	<g>
		<path class="st0" d="M426.7,34.1c-4.7,0-8.5,3.8-8.5,8.5v51.2c0,4.7,3.8,8.5,8.5,8.5s8.5-3.8,8.5-8.5V42.7
			C435.2,38,431.4,34.1,426.7,34.1z"/>
	</g>
</g>
<g>
	<g>
		<path class="st0" d="M426.7,85.3c-4.7,0-8.5,3.8-8.5,8.5s3.8,8.5,8.5,8.5c4.7,0,8.5,3.8,8.5,8.5c0,4.7-3.8,8.5-8.5,8.5
			c-4.7,0-8.5,3.8-8.5,8.5c0,4.7,3.8,8.5,8.5,8.5c14.1,0,25.6-11.5,25.6-25.6S440.8,85.3,426.7,85.3z"/>
	</g>
</g>
<g>
	<g>
		<path class="st0" d="M486.4,324.3H179.2c-4.7,0-8.5,3.8-8.5,8.5v34.1c0,4.7,3.8,8.5,8.5,8.5h307.2c4.7,0,8.5-3.8,8.5-8.5v-34.1
			C494.9,328.1,491.1,324.3,486.4,324.3z M477.9,358.4H187.7v-17.1h290.1L477.9,358.4L477.9,358.4z"/>
	</g>
</g>
<g>
	<g>
		<path class="st0" d="M469.3,392.5h-256c-4.7,0-8.5,3.8-8.5,8.5v68.3c0,4.7,3.8,8.5,8.5,8.5h256c4.7,0,8.5-3.8,8.5-8.5v-68.3
			C477.9,396.4,474,392.5,469.3,392.5z M460.8,460.8H221.9v-51.2h238.9V460.8z"/>
	</g>
</g>
</svg>
